# xmcd
#
# Track frame offsets:
#	150
#	15695
#	31807
#	63040
#	95235
#
# Disc length: 1617 seconds
#
# Revision: 1
# Processed by: cddbd v1.5.2PL0 Copyright (c) Steve Scherf et al.
# Submitted via: EasyCDDAExtractor 2010.4.0.0
#
DISCID=35064f05
DTITLE=New Vision
DYEAR=1999
DGENRE=House
TTITLE0=(Just) Me and You
TTITLE1=(Just) Me and You (Grant Nelson Radio Edit)
TTITLE2=(Just) Me and You (Vocal Mix)
TTITLE3=(Just) Me and You (Joey Negro Club Mix)
TTITLE4=(Just) Me and You (DJ Disco's Superfreak Dub)
EXTD=
EXTT0=
EXTT1=
EXTT2=
EXTT3=
EXTT4=
PLAYORDER=
